<svg width="73" height="73" viewBox="0 0 73 73" fill="none" xmlns="http://www.w3.org/2000/svg">
<rect x="18.2012" y="0.707153" width="56" height="56" rx="12" transform="rotate(15 18.2012 0.707153)" fill="#E15E99"/>
<rect y="17" width="56" height="56" rx="12" fill="#FFF9FF"/>
<g clip-path="url(#clip0_646_529)">
<path d="M28.248 53.198C25.168 53.198 23.012 51.394 22.99 48.776H25.168C25.256 50.382 26.444 51.416 28.248 51.416C30.118 51.416 31.262 50.404 31.262 48.798C31.262 47.236 29.964 46.246 27.918 46.246H26.378V44.464H27.808C29.48 44.464 30.58 43.496 30.58 42.044C30.58 40.636 29.59 39.69 28.094 39.69C26.576 39.69 25.564 40.658 25.498 42.176H23.342C23.408 39.734 25.476 37.908 28.182 37.908C31.042 37.908 32.89 39.558 32.89 41.89C32.89 43.342 32.032 44.508 30.492 45.234C32.45 45.762 33.572 47.038 33.572 48.754C33.572 51.394 31.416 53.198 28.248 53.198Z" fill="#E15E99"/>
</g>
<rect x="0.5" y="17.5" width="55" height="55" rx="11.5" stroke="white" stroke-opacity="0.4"/>
<defs>
<clipPath id="clip0_646_529">
<rect width="28" height="28" fill="white" transform="translate(14 31)"/>
</clipPath>
</defs>
</svg>
