<svg width="25" height="24" viewBox="0 0 25 24" fill="none" xmlns="http://www.w3.org/2000/svg">
<g id="Frame">
<path id="Vector" d="M12.3334 20.8995L17.2831 15.9497C20.0168 13.2161 20.0168 8.78392 17.2831 6.05025C14.5495 3.31658 10.1173 3.31658 7.38362 6.05025C4.64995 8.78392 4.64995 13.2161 7.38362 15.9497L12.3334 20.8995ZM12.3334 23.7279L5.96941 17.364C2.45469 13.8492 2.45469 8.15076 5.96941 4.63604C9.48413 1.12132 15.1826 1.12132 18.6974 4.63604C22.2121 8.15076 22.2121 13.8492 18.6974 17.364L12.3334 23.7279ZM12.3334 13C13.438 13 14.3334 12.1046 14.3334 11C14.3334 9.89543 13.438 9 12.3334 9C11.2288 9 10.3334 9.89543 10.3334 11C10.3334 12.1046 11.2288 13 12.3334 13ZM12.3334 15C10.1242 15 8.33337 13.2091 8.33337 11C8.33337 8.79086 10.1242 7 12.3334 7C14.5425 7 16.3334 8.79086 16.3334 11C16.3334 13.2091 14.5425 15 12.3334 15Z" fill="white"/>
</g>
</svg>
