<?xml version="1.0" encoding="UTF-8"?><svg id="Layer_1" xmlns="http://www.w3.org/2000/svg" viewBox="0 0 805.33 293.96"><defs><style>.cls-1{fill:#ededed;}.cls-2{fill:#ff2995;}.cls-3{fill:#4adfed;}</style></defs><rect class="cls-2" x="666.79" y="148.92" width="74.2" height="70.32" rx="9.97" ry="9.97"/><g><g><g><path class="cls-2" d="m143.06,153.58c-1.71.02-3.3.01-4.66-.02-1.5-.02-2.7-.07-3.45-.16-4.62-.5-9.05-1.3-13.31-2.37-4.02-1.01-7.86-2.25-11.55-3.69t-.02,0c-11.11-4.33-20.76-10.43-28.96-17.1-3.98-3.65-7.39-7.84-10.13-12.44-2.75-4.59-4.84-9.57-6.18-14.8-1.59-6.18-2.56-11.53-2.92-15.59-.16-1.94,2.48-2.69,3.37-.96,4.11,8,11.53,20.55,22.79,32.65,5.94,6.39,12.96,12.66,21.13,18.04,5.69,3.77,11.92,7.1,18.76,9.77,2.07.81,4.19,1.56,6.36,2.24.39.12,1.91.29,4.05.49,1.52,1.36,3.11,2.68,4.74,3.96Z"/><path class="cls-2" d="m121.65,151.03c4.25,1.08,8.69,1.88,13.31,2.37.74.08,1.95.13,3.45.16-3.71-2.05-7.19-4.29-10.48-6.67-8.68-6.26-15.96-13.48-21.93-20.61-.4-.48-.8-.95-1.18-1.43-8.33-10.22-14.03-20.17-17.41-26.91-.89-1.73-3.53-1-3.38.94.41,5.03,1.74,12.08,4.02,20.2.23.85.48,1.71.74,2.57,1.89,6.39,5.49,12.15,10.37,16.69l3.78,3.51c2.28,1.88,4.66,3.71,7.16,5.47t.02,0l11.55,3.69Z"/><path class="cls-2" d="m140.19,150.98c-1.71.02-3.3.01-4.66-.02-1.5-.02-2.7-.07-3.45-.16-4.62-.5-9.05-1.3-13.31-2.37-.25-.21-.51-.42-.75-.62l-10.71-10.19c-.36-1.04-.7-2.07-1.03-3.09-1.24-3.78-2.3-7.42-3.18-10.85-.14-.5-.26-.99-.38-1.48-1.76-7.03-2.78-13.1-3.1-17.58-.13-1.94,2.52-2.64,3.38-.91,5.06,10.38,15.46,28.33,32.44,43.31,1.52,1.36,3.11,2.68,4.74,3.96Z"/></g><path class="cls-2" d="m235.12,235.05s-1.53-20.83-26.43-28.1c-29.28-8.55-65.62-1.51-106.22-26.79-38.99-24.27-59.81-70.84-61.75-93.45-.18-2.07,2.64-2.87,3.59-1.01,10.82,21.24,43.45,72.46,106.34,71.85,2.8-.03,9.66,1.1,13.29-3.21,9.85-11.69-46.86-60.19-43.93-68.01,3.94-10.51,33.56,24.58,66.02,48.03,16.03,11.58,32.83,23.97,37.79,31.08,10.26,14.73,12.48,30.09,12.46,46.16l-1.16,23.46Z"/><path class="cls-2" d="m74.29,126.45c-3.95-3.79-7.54-7.69-10.75-11.56l10.75,11.56Z"/></g><g><g><path class="cls-3" d="m336.39,153.58c1.71.02,3.3.01,4.66-.02,1.5-.02,2.7-.07,3.45-.16,4.62-.5,9.05-1.3,13.31-2.37,4.02-1.01,7.86-2.25,11.55-3.69t.02,0c11.11-4.33,20.76-10.43,28.96-17.1,3.98-3.65,7.39-7.84,10.13-12.44,2.75-4.59,4.84-9.57,6.18-14.8,1.59-6.18,2.56-11.53,2.92-15.59.16-1.94-2.48-2.69-3.37-.96-4.11,8-11.53,20.55-22.79,32.65-5.94,6.39-12.96,12.66-21.13,18.04-5.69,3.77-11.92,7.1-18.76,9.77-2.07.81-4.19,1.56-6.36,2.24-.39.12-1.91.29-4.05.49-1.52,1.36-3.11,2.68-4.74,3.96Z"/><path class="cls-3" d="m369.36,147.33s.01,0,.02,0c2.5-1.76,4.88-3.59,7.16-5.47l3.78-3.51c4.88-4.54,8.48-10.29,10.37-16.69.25-.87.51-1.73.74-2.57,2.28-8.13,3.61-15.18,4.02-20.2.15-1.94-2.49-2.67-3.38-.94-3.38,6.74-9.08,16.69-17.41,26.91-.39.48-.79.95-1.18,1.43-5.98,7.14-13.26,14.35-21.93,20.61-3.29,2.38-6.78,4.62-10.48,6.67,1.5-.02,2.7-.07,3.45-.16,4.62-.5,9.05-1.3,13.31-2.37l11.55-3.69Z"/><path class="cls-3" d="m339.26,150.98c1.71.02,3.3.01,4.66-.02,1.5-.02,2.7-.07,3.45-.16,4.62-.5,9.05-1.3,13.31-2.37.25-.21.51-.42.75-.62l10.71-10.19c.36-1.04.7-2.07,1.03-3.09,1.24-3.78,2.3-7.42,3.18-10.85.14-.5.26-.99.38-1.48,1.76-7.03,2.78-13.1,3.1-17.58.13-1.94-2.52-2.64-3.38-.91-5.06,10.38-15.46,28.33-32.44,43.31-1.52,1.36-3.11,2.68-4.74,3.96Z"/></g><path class="cls-3" d="m244.34,235.05s1.53-20.83,26.43-28.1c29.28-8.55,65.62-1.51,106.22-26.79,38.99-24.27,59.81-70.84,61.75-93.45.18-2.07-2.64-2.87-3.59-1.01-10.82,21.24-43.45,72.46-106.34,71.85-2.8-.03-9.66,1.1-13.29-3.21-9.85-11.69,46.86-60.19,43.93-68.01-3.94-10.51-33.56,24.58-66.02,48.03-16.03,11.58-32.83,23.97-37.79,31.08-10.26,14.73-12.48,30.09-12.46,46.16l1.16,23.46Z"/><path class="cls-3" d="m415.92,114.89c-3.21,3.87-6.8,7.78-10.75,11.56l10.75-11.56Z"/></g></g><g><path class="cls-2" d="m467.88,80.22h21.63c12.96,0,20.6,6.52,20.6,18.21s-6.84,17.89-19.4,17.89h-13.28v16.22h-9.54v-52.33Zm22.27,29.35c6.92,0,10.9-3.5,10.9-10.66s-4.21-10.74-11.85-10.74h-11.77v21.39h12.72Z"/><path class="cls-2" d="m517.59,93.27h8.91l-.32,11.29h.08c1.83-7.08,5.89-11.93,14-11.93,8.51,0,13.2,5.57,13.2,15.35,0,2.46-.24,5.65-.4,7.32h-8.11c.16-1.51.32-3.5.32-5.33,0-6.6-2.54-9.7-7.79-9.7-6.76,0-10.98,5.73-10.98,15.11v17.18h-8.91v-39.29Z"/><path class="cls-2" d="m559.89,112.99c0-12.57,8.03-20.36,20.52-20.36s20.6,7.79,20.6,20.36-8.03,20.2-20.6,20.2-20.52-7.71-20.52-20.2Zm32.21,0c0-8.03-4.45-13.04-11.69-13.04s-11.61,5.01-11.61,13.04,4.37,12.88,11.61,12.88,11.69-4.93,11.69-12.88Z"/><path class="cls-2" d="m608.88,93.27h8.91l-.16,9.14h.08c1.59-5.96,6.84-9.78,14.63-9.78,11.21,0,18.29,7.71,18.29,19.56,0,12.72-7.16,21-18.45,21-7.79,0-12.88-3.5-14.55-8.59h-.08c.08,2.62.24,6.68.24,8.27v15.43h-8.91v-55.03Zm32.84,19.17c0-7.55-4.37-12.49-11.45-12.49s-12.33,5.01-12.49,12.88v2.07c0,6.68,5.01,10.97,12.64,10.97,6.84,0,11.29-5.25,11.29-13.44Z"/><path class="cls-2" d="m695.57,114.66h-29.43c.48,7.55,4.69,11.61,11.37,11.61,5.72,0,9.62-2.54,10.02-7.16h8.03c-.32,8.75-7.48,14.08-18.21,14.08-12.41,0-20.2-7.63-20.2-19.96s7.79-20.6,20.2-20.6c11.13,0,18.21,6.6,18.21,18.85v3.18Zm-8.03-5.96c0-5.88-3.66-9.15-10.1-9.15s-10.02,3.18-11.05,9.7h21.15v-.56Z"/><path class="cls-2" d="m703.28,93.27h8.91l-.32,11.29h.08c1.83-7.08,5.89-11.93,14-11.93,8.51,0,13.2,5.57,13.2,15.35,0,2.46-.24,5.65-.4,7.32h-8.11c.16-1.51.32-3.5.32-5.33,0-6.6-2.54-9.7-7.79-9.7-6.76,0-10.98,5.73-10.98,15.11v17.18h-8.91v-39.29Z"/></g><g><path class="cls-2" d="m466.06,184.83c0-16.7,11.13-27.04,26.88-27.04,13.76,0,23.54,8.19,23.54,20.28,0,.56-.08,1.59-.16,2.54h-8.43c.08-.72.08-1.35.08-1.75,0-8.03-6.28-13.12-14.71-13.12-10.18,0-17.5,7.39-17.5,19.09s7.63,18.93,17.5,18.93c8.75,0,14.87-5.01,14.87-12.56v-1.27h8.51v1.83c0,11.85-9.86,19.96-23.7,19.96-15.59,0-26.88-10.26-26.88-26.88Z"/><path class="cls-2" d="m523.47,199.62c0-5.96,4.21-10.66,14.71-10.66h14.55v-2.78c0-5.88-3.42-8.51-10.34-8.51-6.04,0-9.46,2.31-9.46,6.68,0,.24,0,.88.08,1.51h-8.19c-.08-.56-.16-1.59-.16-2.3,0-7.88,6.84-12.57,18.05-12.57,11.93,0,18.93,5.65,18.93,15.98v23.94h-8.91c.16-1.91.4-5.49.4-8.67h-.08c-1.27,5.81-5.96,9.31-14.63,9.31s-14.95-4.29-14.95-11.93Zm29.27-4.53v-.72h-13.76c-5.09,0-7.32,1.75-7.32,4.85,0,3.58,3.18,5.65,8.59,5.65,7.71,0,12.48-3.74,12.48-9.78Z"/><path class="cls-2" d="m570.15,171.63h8.91l-.32,11.29h.08c1.83-7.08,5.88-11.93,14-11.93,8.51,0,13.2,5.57,13.2,15.35,0,2.46-.24,5.65-.4,7.32h-8.11c.16-1.51.32-3.5.32-5.33,0-6.6-2.54-9.7-7.79-9.7-6.76,0-10.97,5.73-10.97,15.11v17.18h-8.91v-39.29Z"/><path class="cls-2" d="m650.87,193.02h-29.43c.48,7.55,4.69,11.61,11.37,11.61,5.72,0,9.62-2.54,10.02-7.16h8.03c-.32,8.75-7.48,14.08-18.21,14.08-12.41,0-20.2-7.63-20.2-19.96s7.79-20.6,20.2-20.6c11.13,0,18.21,6.6,18.21,18.85v3.18Zm-8.03-5.96c0-5.88-3.66-9.15-10.1-9.15s-10.02,3.18-11.05,9.7h21.15v-.56Z"/></g><g><path class="cls-1" d="m705.73,209.55c-2.79,0-5.11-.55-6.97-1.64-1.86-1.09-3.16-2.62-3.92-4.57-.75-1.95-.87-4.26-.35-6.91l3.2-16.07h6.68l-3.2,15.95c-.25,1.29-.31,2.41-.21,3.36s.39,1.75.84,2.38c.45.63,1.07,1.09,1.87,1.39.79.3,1.72.45,2.79.45,1.34,0,2.5-.26,3.48-.78.98-.52,1.8-1.34,2.46-2.46.66-1.12,1.16-2.57,1.52-4.35l3.2-15.95h6.52l-3.24,16.36c-.85,4.24-2.5,7.43-4.96,9.59s-5.7,3.24-9.72,3.24Z"/><path class="cls-1" d="m682.19,181.18l.86-4.47,16.89-18.2h7.26l-16.6,18.2-3.36-.94h22.67l-1.11,5.41h-26.61Zm14.23,6.03l1.23-6.03,1.35-5.41,1.07-5.37h6.19l-3.36,16.81h-6.48Z"/></g><rect class="cls-2" x="468.12" y="231.01" width="272.86" height="7.65"/></svg>