<?xml version="1.0" encoding="UTF-8"?><svg id="Layer_1" xmlns="http://www.w3.org/2000/svg" viewBox="0 0 643.72 308.45"><defs><style>.cls-1{fill:#ededed;font-family:Montserrat-BoldItalic, Montserrat;font-size:41px;font-style:italic;font-weight:700;}.cls-2,.cls-3{fill:#ff2995;}.cls-4{fill:#4ddcf5;}.cls-3{font-family:FONTSPRINGDEMO-RocGroteskMediumRegular, 'FONTSPRING DEMO - Roc Grotesk Medium';font-size:79.53px;}</style></defs><g><g><g><path class="cls-2" d="m221.31,118.06c-1.71.02-3.3.01-4.66-.02-1.5-.02-2.7-.07-3.45-.16-4.62-.5-9.05-1.3-13.31-2.37-4.02-1.01-7.86-2.25-11.55-3.69t-.02,0c-11.11-4.33-20.76-10.43-28.96-17.1-3.98-3.65-7.39-7.84-10.13-12.44-2.75-4.59-4.84-9.57-6.18-14.8-1.59-6.18-2.56-11.53-2.92-15.59-.16-1.94,2.48-2.69,3.37-.96,4.11,8,11.53,20.55,22.79,32.65,5.94,6.39,12.96,12.66,21.13,18.04,5.69,3.77,11.92,7.1,18.76,9.77,2.07.81,4.19,1.56,6.36,2.24.39.12,1.91.29,4.05.49,1.52,1.36,3.11,2.68,4.74,3.96Z"/><path class="cls-2" d="m199.89,115.51c4.25,1.08,8.69,1.88,13.31,2.37.74.08,1.95.13,3.45.16-3.71-2.05-7.19-4.29-10.48-6.67-8.68-6.26-15.96-13.48-21.93-20.61-.4-.48-.8-.95-1.18-1.43-8.33-10.22-14.03-20.17-17.41-26.91-.89-1.73-3.53-1-3.38.94.41,5.03,1.74,12.08,4.02,20.2.23.85.48,1.71.74,2.57,1.89,6.39,5.49,12.15,10.37,16.69l3.78,3.51c2.28,1.88,4.66,3.71,7.16,5.47t.02,0l11.55,3.69Z"/><path class="cls-2" d="m218.43,115.47c-1.71.02-3.3.01-4.66-.02-1.5-.02-2.7-.07-3.45-.16-4.62-.5-9.05-1.3-13.31-2.37-.25-.21-.51-.42-.75-.62l-10.71-10.19c-.36-1.04-.7-2.07-1.03-3.09-1.24-3.78-2.3-7.42-3.18-10.85-.14-.5-.26-.99-.38-1.48-1.76-7.03-2.78-13.1-3.1-17.58-.13-1.94,2.52-2.64,3.38-.91,5.06,10.38,15.46,28.33,32.44,43.31,1.52,1.36,3.11,2.68,4.74,3.96Z"/></g><path class="cls-2" d="m313.36,199.53s-1.53-20.83-26.43-28.1c-29.28-8.55-65.62-1.51-106.22-26.79-38.99-24.27-59.81-70.84-61.75-93.45-.18-2.07,2.64-2.87,3.59-1.01,10.82,21.24,43.45,72.46,106.34,71.85,2.8-.03,9.66,1.1,13.29-3.21,9.85-11.69-46.86-60.19-43.93-68.01,3.94-10.51,33.56,24.58,66.02,48.03,16.03,11.58,32.83,23.97,37.79,31.08,10.26,14.73,12.48,30.09,12.46,46.16l-1.16,23.46Z"/><path class="cls-2" d="m152.53,90.94c-3.95-3.79-7.54-7.69-10.75-11.56l10.75,11.56Z"/></g><g><g><path class="cls-4" d="m414.63,118.06c1.71.02,3.3.01,4.66-.02,1.5-.02,2.7-.07,3.45-.16,4.62-.5,9.05-1.3,13.31-2.37,4.02-1.01,7.86-2.25,11.55-3.69t.02,0c11.11-4.33,20.76-10.43,28.96-17.1,3.98-3.65,7.39-7.84,10.13-12.44,2.75-4.59,4.84-9.57,6.18-14.8,1.59-6.18,2.56-11.53,2.92-15.59.16-1.94-2.48-2.69-3.37-.96-4.11,8-11.53,20.55-22.79,32.65-5.94,6.39-12.96,12.66-21.13,18.04-5.69,3.77-11.92,7.1-18.76,9.77-2.07.81-4.19,1.56-6.36,2.24-.39.12-1.91.29-4.05.49-1.52,1.36-3.11,2.68-4.74,3.96Z"/><path class="cls-4" d="m447.6,111.82s.01,0,.02,0c2.5-1.76,4.88-3.59,7.16-5.47l3.78-3.51c4.88-4.54,8.48-10.29,10.37-16.69.25-.87.51-1.73.74-2.57,2.28-8.13,3.61-15.18,4.02-20.2.15-1.94-2.49-2.67-3.38-.94-3.38,6.74-9.08,16.69-17.41,26.91-.39.48-.79.95-1.18,1.43-5.98,7.14-13.26,14.35-21.93,20.61-3.29,2.38-6.78,4.62-10.48,6.67,1.5-.02,2.7-.07,3.45-.16,4.62-.5,9.05-1.3,13.31-2.37l11.55-3.69Z"/><path class="cls-4" d="m417.51,115.47c1.71.02,3.3.01,4.66-.02,1.5-.02,2.7-.07,3.45-.16,4.62-.5,9.05-1.3,13.31-2.37.25-.21.51-.42.75-.62l10.71-10.19c.36-1.04.7-2.07,1.03-3.09,1.24-3.78,2.3-7.42,3.18-10.85.14-.5.26-.99.38-1.48,1.76-7.03,2.78-13.1,3.1-17.58.13-1.94-2.52-2.64-3.38-.91-5.06,10.38-15.46,28.33-32.44,43.31-1.52,1.36-3.11,2.68-4.74,3.96Z"/></g><path class="cls-4" d="m322.58,199.53s1.53-20.83,26.43-28.1c29.28-8.55,65.62-1.51,106.22-26.79,38.99-24.27,59.81-70.84,61.75-93.45.18-2.07-2.64-2.87-3.59-1.01-10.82,21.24-43.45,72.46-106.34,71.85-2.8-.03-9.66,1.1-13.29-3.21-9.85-11.69,46.86-60.19,43.93-68.01-3.94-10.51-33.56,24.58-66.02,48.03-16.03,11.58-32.83,23.97-37.79,31.08-10.26,14.73-12.48,30.09-12.46,46.16l1.16,23.46Z"/><path class="cls-4" d="m494.16,79.37c-3.21,3.87-6.8,7.78-10.75,11.56l10.75-11.56Z"/></g></g><text class="cls-3" transform="translate(26.6 267.7)"><tspan x="0" y="0">Proper</tspan></text><text class="cls-3" transform="translate(317.97 267.7)"><tspan x="0" y="0">Care</tspan></text><g><rect class="cls-2" x="531.23" y="207.17" width="74.2" height="70.32" rx="9.97" ry="9.97"/><g><text class="cls-1" transform="translate(555.45 267.31)"><tspan x="0" y="0">U</tspan></text><text class="cls-1" transform="translate(546.35 245.46)"><tspan x="0" y="0">4</tspan></text></g></g></svg>