<svg width="115" height="44" viewBox="0 0 115 44" fill="none" xmlns="http://www.w3.org/2000/svg">
<g id="logo.svg" clip-path="url(#clip0_505_9137)">
<path id="Vector" d="M85.3631 28.2809H83.4073V11.3407H85.1339L94.5714 24.5697L94.5482 11.3407H96.504V28.2809H94.7824L85.3449 15.052L85.3681 28.2809H85.3631Z" fill="#0A0A0A"/>
<path id="Vector_2" d="M107.241 20.8162V18.8572H114.859V28.2856H112.95V26.1857C111.341 27.7971 109.267 28.5205 106.871 28.5205C101.908 28.5205 98.3663 24.9032 98.3663 19.839C98.3663 14.7749 101.814 11.1576 106.871 11.1576C110.436 11.1576 113.443 13.281 115 16.6869H112.833C111.693 14.4695 109.502 13.0696 106.871 13.0696C103.024 13.0696 100.299 15.9164 100.299 19.8344C100.299 23.7523 102.931 26.5991 106.871 26.5991C109.69 26.5991 111.576 25.1992 112.95 22.8644V20.8115H107.241V20.8162Z" fill="#0A0A0A"/>
<path id="Vector_3" d="M8.45755 14.2581V28.2809H5.4742V14.2581H0V11.3407H13.9083V14.2581H8.45755Z" fill="#0A0A0A"/>
<path id="Vector_4" d="M30.1244 28.2809H27.1879V26.74C25.7431 27.8581 23.9279 28.4876 21.8311 28.4876C16.9151 28.4876 13.3031 24.8703 13.3031 19.8296C13.3031 14.7889 16.9151 11.1481 21.8311 11.1481C25.9308 11.1481 29.1018 13.6426 30.0775 17.3539H26.9299C26.0669 15.3714 24.2046 14.1124 21.8263 14.1124C18.4724 14.1124 16.2584 16.607 16.2584 19.8296C16.2584 23.0523 18.5662 25.5468 21.8263 25.5468C24.5283 25.5468 26.5078 24.0529 27.1833 21.3235H21.8733V18.3357H30.1197V28.2762L30.1244 28.2809Z" fill="#0A0A0A"/>
<path id="Vector_5" d="M35.228 21.3282V28.2809H32.2447V11.3407H39.1636C43.0523 11.3407 45.3602 12.9051 45.3602 16.3345C45.3602 19.7639 43.0523 21.3282 39.1636 21.3282H35.228ZM35.228 14.2581V18.3404H39.1636C41.2369 18.3404 42.4238 17.7109 42.4238 16.3345C42.4238 14.958 41.2369 14.2581 39.1636 14.2581H35.228Z" fill="#0A0A0A"/>
<path id="Vector_6" d="M46.4063 19.8343C46.4063 14.7936 50.0182 11.1528 54.9341 11.1528C59.0339 11.1528 62.2049 13.6473 63.1806 17.3586H60.033C59.1699 15.3761 57.3077 14.1171 54.9294 14.1171C51.5755 14.1171 49.3614 16.6117 49.3614 19.8343C49.3614 23.057 51.6693 25.5515 54.9294 25.5515C57.6548 25.5515 59.7516 23.8697 60.3333 21.3752H63.3636C62.7115 25.5985 59.381 28.4923 54.9294 28.4923C50.0135 28.4923 46.4016 24.8751 46.4016 19.8343H46.4063Z" fill="#0A0A0A"/>
<path id="Vector_7" d="M12.0132 33.5753H50.8812C46.6689 39.8186 39.5389 43.9245 31.4472 43.9245C23.3556 43.9245 16.2208 39.8186 12.0132 33.5753Z" fill="#0A0A0A"/>
<path id="Vector_8" d="M72.4919 0.0755615V43.7647" stroke="#0A0A0A" stroke-width="1.19137" stroke-miterlimit="10"/>
</g>
<defs>
<clipPath id="clip0_505_9137">
<rect width="115" height="43.8489" fill="white" transform="translate(0 0.0755615)"/>
</clipPath>
</defs>
</svg>
