<svg width="25" height="24" viewBox="0 0 25 24" fill="none" xmlns="http://www.w3.org/2000/svg">
<g id="Frame">
<path id="Vector" d="M10.0322 10.6821C10.9687 12.3288 12.3379 13.698 13.9846 14.6344L14.8691 13.3961C15.1632 12.9845 15.7183 12.8573 16.1623 13.0998C17.5691 13.8683 19.1238 14.3353 20.7456 14.4637C21.2657 14.5049 21.6667 14.9389 21.6667 15.4606V19.9234C21.6667 20.4361 21.2789 20.8657 20.7689 20.9181C20.239 20.9726 19.7044 21 19.1667 21C10.6062 21 3.66666 14.0604 3.66666 5.5C3.66666 4.96227 3.69408 4.42771 3.74855 3.89776C3.80096 3.38775 4.2306 3 4.74331 3H9.20608C9.72776 3 10.1618 3.40104 10.203 3.92109C10.3313 5.54288 10.7984 7.09764 11.5669 8.50444C11.8094 8.9484 11.6822 9.50354 11.2706 9.79757L10.0322 10.6821ZM7.51091 10.0252L9.41086 8.66809C8.87213 7.50514 8.50294 6.27183 8.31393 5H5.67573C5.66969 5.16632 5.66666 5.333 5.66666 5.5C5.66666 12.9558 11.7109 19 19.1667 19C19.3337 19 19.5004 18.997 19.6667 18.9909V16.3527C18.3949 16.1637 17.1616 15.7945 15.9986 15.2558L14.6415 17.1558C14.0925 16.9425 13.5623 16.6915 13.0541 16.4061L12.996 16.373C11.0364 15.2587 9.408 13.6303 8.29366 11.6707L8.2606 11.6126C7.97515 11.1044 7.7242 10.5742 7.51091 10.0252Z" fill="white"/>
</g>
</svg>
